<svg width="100%" height="100%" viewBox="0 0 150 150" version="1.1"
    xmlns="http://www.w3.org/2000/svg" xmlns:xlink="http://www.w3.org/1999/xlink"
    xml:space="preserve"
    fill-rule="evenodd" clip-rule="evenodd" stroke-linecap="round" stroke-linejoin="round"
    stroke-miterlimit="1.5">
    <g>
        <circle class="icon-bg" cx="75" cy="75" r="75"/>
        <g>
            <path d="M66.91116,48.90345C71.85128,53.84356 71.85128,61.86506 66.91116,66.80518C61.97104,71.7453 53.94955,71.7453 49.00943,66.80518C44.06931,61.86506 44.06931,53.84356 49.00943,48.90345C53.94955,43.96333 61.97104,43.96333 66.91116,48.90345Z" fill="none" stroke="currentColor" stroke-width="6"/>
            <path d="M33.88536,57.85431L45.30186,57.85431" fill="none" stroke="currentColor" stroke-width="6"/>
            <path d="M70.61873,57.85431L116.11464,57.85431" fill="none" stroke="currentColor" stroke-width="6"/>
            <path d="M83.08884,101.09655C78.14872,96.15644 78.14872,88.13494 83.08884,83.19482C88.02896,78.2547 96.05045,78.2547 100.99057,83.19482C105.93069,88.13494 105.93069,96.15644 100.99057,101.09655C96.05045,106.03667 88.02896,106.03667 83.08884,101.09655Z" fill="none" stroke="currentColor" stroke-width="6"/>
            <path d="M116.11464,92.14569L104.69814,92.14569" fill="none" stroke="currentColor" stroke-width="6"/>
            <path d="M79.38127,92.14569L33.88536,92.14569" fill="none" stroke="currentColor" stroke-width="6"/>
        </g>
    </g>
</svg>