<svg width="100%" height="100%" viewBox="0 0 300 300" version="1.1" xml:space="preserve"
  xmlns="http://www.w3.org/2000/svg">
  <rect x="-5" y="-5" width="310" height="310" style="fill:#ff9800;"/>
  <path d="M161.419,46.198C167.968,47.185 172.483,53.303 171.496,59.852C170.509,66.401 164.391,70.917 157.842,69.93C143.421,67.756 119.416,64.592 88.915,98.998C72.331,117.706 71.215,141.317 75.31,162.022C79.607,183.747 89.696,202.602 96.132,210.466C108.691,225.813 129.574,230.864 149.319,231.394C169.823,231.944 189.483,227.505 198.861,222.005C202.674,219.769 216.849,213.601 222.406,187.275C228.134,160.14 230.576,136.42 214.21,114.104C210.293,108.763 211.449,101.247 216.789,97.331C222.13,93.414 229.646,94.57 233.563,99.91C254.267,128.141 253.134,157.906 245.889,192.232C237.763,230.73 216.578,239.437 211.002,242.708C199.173,249.645 174.539,256.079 148.675,255.385C122.049,254.671 94.495,246.361 77.559,225.666C69.701,216.065 57.012,193.204 51.766,166.679C46.318,139.134 48.893,107.965 70.956,83.078C110.788,38.145 142.586,43.359 161.419,46.198Z" style="fill:#ff3a00;"/>
</svg>