<svg width="100%" height="100%" viewBox="0 0 720 240" version="1.1"
    xmlns="http://www.w3.org/2000/svg" fill="currentColor">
    <path
        d="M111.478,106.757L111.478,108.737C111.478,112.533 109.993,115.421 107.023,117.401C103.392,119.876 99.679,121.609 95.884,122.599C92.253,123.589 89.283,125.982 86.972,129.778C85.817,131.758 83.755,132.748 80.784,132.748C77.979,132.748 76.411,131.428 76.081,128.787L76.081,126.065C76.081,123.259 77.484,120.454 80.289,117.648C81.444,115.998 82.022,114.431 82.022,112.945C82.022,107.335 78.886,104.529 72.616,104.529C70.635,104.529 68.243,105.354 65.437,107.005C62.467,108.82 60.239,110.883 58.754,113.193C57.269,115.338 56.526,118.061 56.526,121.361L56.526,167.897C56.856,182.584 57.351,192.898 58.011,198.839C58.671,204.615 59.579,208.493 60.734,210.473C61.724,212.288 62.797,213.278 63.952,213.443C65.107,213.608 66.18,215.506 67.17,219.136L67.417,220.127C67.417,220.952 67.087,221.612 66.427,222.107C65.272,222.932 64.282,223.345 63.457,223.345C58.506,223.014 54.793,222.849 52.318,222.849L29.545,222.849C24.429,222.849 20.799,223.014 18.654,223.345C17.664,223.345 16.756,222.849 15.931,221.859C15.271,221.034 14.941,219.962 14.941,218.641C15.766,215.011 16.756,213.113 17.911,212.948C19.066,212.783 20.304,211.38 21.624,208.74C22.779,206.595 23.852,201.727 24.842,194.136C25.832,186.875 26.327,174.746 26.327,157.749C27.317,144.052 27.812,133.16 27.812,125.074C27.812,119.959 27.647,116.493 27.317,114.678C26.657,106.262 25.42,100.569 23.604,97.598C21.789,94.628 19.974,92.895 18.159,92.4C16.013,91.905 14.363,89.595 13.208,85.469C13.208,83.324 14.611,82.251 17.416,82.251C20.056,82.581 24.017,82.911 29.298,83.242C32.103,83.407 36.146,83.489 41.427,83.489L53.308,83.489C56.774,83.489 58.506,84.809 58.506,87.45L58.259,88.935C58.094,89.76 58.011,90.255 58.011,90.42C58.011,92.565 58.424,93.638 59.249,93.638L61.477,93.638C62.467,92.978 63.292,92.483 63.952,92.153C64.777,91.823 65.85,91.08 67.17,89.925C67.665,89.595 68.903,88.605 70.883,86.955C73.193,85.139 74.843,83.819 75.834,82.994C77.649,81.344 81.362,80.519 86.972,80.519C92.748,80.519 98.194,82.829 103.31,87.45C108.59,92.07 111.313,98.506 111.478,106.757ZM209.006,194.631C215.441,191.66 218.659,188.195 218.659,184.234L218.659,172.105C218.659,169.96 218.742,166 218.907,160.224C218.907,159.399 218.989,157.419 219.154,154.283C219.154,139.761 219.113,129.86 219.031,124.579C218.948,119.299 218.577,115.173 217.917,112.203C216.762,103.952 215.276,98.506 213.461,95.866C211.811,93.225 210.161,91.658 208.511,91.163C207.025,90.667 206.118,88.027 205.788,83.242C205.788,81.756 206.695,81.014 208.511,81.014C212.141,81.344 215.689,81.509 219.154,81.509L229.798,81.509C231.944,81.509 234.171,81.344 236.482,81.014C238.297,80.684 240.525,80.436 243.165,80.271C245.475,80.271 247.126,81.014 248.116,82.499C249.106,83.984 249.601,85.304 249.601,86.459L249.601,90.915C249.436,91.575 249.353,92.565 249.353,93.885C249.353,99.166 249.271,104.612 249.106,110.222C248.941,118.639 248.693,133.325 248.363,154.283C248.363,166.165 248.487,175.076 248.734,181.017C248.982,186.957 249.353,191.413 249.848,194.383C251.169,201.644 252.654,206.265 254.304,208.245C256.119,210.39 257.687,211.546 259.007,211.711C260.492,211.876 261.235,215.011 261.235,221.117C261.235,222.602 260.327,223.345 258.512,223.345C255.872,223.014 252.159,222.767 247.373,222.602C244.238,222.437 240.525,222.354 236.234,222.354C232.604,222.354 229.881,222.437 228.066,222.602L219.897,223.345C218.082,223.345 217.174,222.602 217.174,221.117C217.174,219.136 217.504,216.414 218.164,212.948C218.164,212.783 218.247,212.536 218.412,212.206L218.412,211.463C218.412,209.648 217.669,208.74 216.184,208.74C215.194,208.74 214.369,208.988 213.709,209.483C209.088,211.133 203.395,213.196 196.629,215.671L186.233,219.632C176.826,223.097 168.245,224.83 160.489,224.83C152.733,224.83 146.38,222.024 141.429,216.414C139.119,213.773 137.428,209.978 136.355,205.027C135.282,200.077 134.746,193.476 134.746,185.225L134.746,179.284C134.911,176.148 135.159,172.27 135.489,167.65C135.819,163.029 136.066,158.491 136.231,154.036C136.231,151.56 136.314,149.002 136.479,146.362L136.479,139.679C136.479,127.137 135.984,117.896 134.994,111.955C133.508,103.704 131.776,98.341 129.795,95.866C127.815,93.39 126,92.153 124.35,92.153C122.7,92.153 121.709,90.09 121.379,85.964C121.379,84.314 122.204,83.489 123.855,83.489C124.185,83.489 124.927,83.572 126.082,83.737C127.733,83.902 129.053,83.984 130.043,83.984C130.373,83.984 131.198,83.902 132.518,83.737L135.489,83.737C136.149,83.737 137.386,83.654 139.202,83.489C143.492,83.324 146.215,83.242 147.37,83.242C152.156,83.242 157.436,82.911 163.212,82.251C164.532,82.251 165.523,82.581 166.183,83.242C167.338,83.902 167.915,84.644 167.915,85.469C167.915,87.945 167.75,89.182 167.42,89.182C166.76,89.182 166.43,89.677 166.43,90.667C166.265,92.318 166.018,97.186 165.688,105.272C165.523,113.193 165.275,127.632 164.945,148.59C164.945,156.181 165.027,162.947 165.192,168.888L165.192,173.591L165.44,173.591C165.77,193.063 168.658,203.212 174.104,204.037C177.569,204.532 180.209,204.78 182.025,204.78C182.52,204.78 183.097,204.697 183.757,204.532L184.5,204.532C187.965,203.542 192.008,202.469 196.629,201.314C199.599,200.489 203.56,197.271 209.006,194.631ZM282.027,102.549L282.523,102.301C300.18,88.605 318.002,81.756 335.989,81.756C345.066,81.756 354.967,83.159 365.693,85.964C375.925,88.605 385.908,93.06 395.645,99.331C395.645,99.496 395.727,99.579 395.892,99.579C396.387,100.074 396.635,101.146 396.635,102.797L396.635,106.51C396.47,107.995 396.222,109.727 395.892,111.708C395.727,114.348 395.645,120.619 395.645,130.52C395.645,134.646 395.562,143.227 395.397,156.263L395.15,166.412C395.48,181.759 396.057,192.238 396.882,197.849C397.872,203.79 399.028,207.833 400.348,209.978C401.503,211.958 402.906,213.196 404.556,213.691C406.041,214.186 407.114,216.166 407.774,219.632C408.269,220.622 408.516,221.364 408.516,221.859C408.516,223.18 407.114,223.84 404.308,223.84L402.575,223.592C398.615,223.097 395.81,222.767 394.159,222.602C392.179,222.437 388.714,222.354 383.763,222.354L375.595,222.354C372.129,222.354 369.324,222.519 367.178,222.849C365.858,222.849 364.951,222.354 364.456,221.364C363.961,220.374 363.713,219.302 363.713,218.146L364.208,213.443C364.208,213.278 364.291,213.031 364.456,212.701L364.456,211.958C364.456,210.968 364.126,210.473 363.465,210.473C362.805,210.638 361.815,211.133 360.495,211.958C358.35,213.113 356.452,214.351 354.802,215.671C353.317,216.991 351.419,218.064 349.109,218.889C339.702,222.519 330.214,224.335 320.642,224.335C312.391,224.335 304.14,222.849 295.889,219.879C279.387,213.443 271.136,200.737 271.136,181.759C271.136,157.171 278.48,141.411 293.166,134.481C308.348,127.55 326.501,124.084 347.623,124.084C349.934,124.084 351.666,124.167 352.822,124.332L358.02,125.074C364.291,125.074 367.426,122.187 367.426,116.411C367.261,113.44 366.353,110.222 364.703,106.757C363.218,103.622 359.092,101.394 352.327,100.074C345.396,98.754 339.455,98.011 334.504,97.846C317.012,97.846 303.233,102.962 293.166,113.193C293.166,113.688 292.589,113.935 291.434,113.935C290.609,113.935 289.866,113.77 289.206,113.44C287.226,112.615 285.493,111.625 284.008,110.47C282.193,108.655 281.285,106.922 281.285,105.272C281.285,104.117 281.532,103.209 282.027,102.549ZM360.743,134.728C339.785,134.893 325.181,139.844 316.929,148.095C308.843,156.181 304.8,165.917 304.8,177.304C304.8,189.02 309.338,197.931 318.415,204.037C322.705,206.677 327.161,207.998 331.781,207.998C338.217,207.998 345.726,205.605 354.307,200.819C355.132,200.489 356.205,199.746 357.525,198.591L358.267,198.096C359.422,197.106 360.165,196.446 360.495,196.116C362.97,194.301 364.456,192.073 364.951,189.433C365.281,187.617 365.611,185.06 365.941,181.759C366.106,179.614 366.188,175.983 366.188,170.868C366.188,165.257 366.271,160.884 366.436,157.749L367.178,150.323C367.343,148.672 367.426,146.362 367.426,143.392C367.426,138.771 366.601,136.213 364.951,135.718C363.465,135.058 362.063,134.728 360.743,134.728ZM422.378,17.398L424.111,17.151C428.071,17.646 432.362,17.893 436.982,17.893L449.607,17.893C452.082,17.893 453.98,17.811 455.3,17.646C456.62,17.316 458.518,16.986 460.993,16.655C461.158,16.655 461.406,16.573 461.736,16.408L462.478,16.408C464.788,16.408 465.944,17.811 465.944,20.616C465.614,23.916 465.366,26.227 465.201,27.547L465.201,57.251C465.201,69.792 464.953,91.328 464.458,121.856C464.293,124.002 464.211,127.055 464.211,131.015L464.211,139.679C464.211,141.989 464.953,143.144 466.439,143.144C468.089,142.649 469.409,141.907 470.399,140.916C486.571,127.055 496.968,117.153 501.588,111.213C505.549,106.262 507.529,102.219 507.529,99.084C506.704,96.773 504.724,95.123 501.588,94.133C499.113,93.143 497.875,91.245 497.875,88.44L497.875,87.45C498.04,86.789 498.123,86.294 498.123,85.964C500.103,83.819 502.413,82.746 505.054,82.746C509.344,83.407 513.552,83.819 517.678,83.984C520.978,84.149 525.434,84.232 531.044,84.232L543.174,84.232C549.279,84.232 553.57,84.067 556.045,83.737C557.2,83.737 558.025,84.314 558.52,85.469L558.768,85.964L558.768,86.707C558.768,87.697 558.438,88.44 557.778,88.935C554.312,92.73 552.002,94.628 550.847,94.628C549.692,94.628 547.959,95.123 545.649,96.113C543.504,97.103 539.791,99.579 534.51,103.539C529.394,107.5 521.143,115.256 509.757,126.807C504.971,131.758 502.578,135.223 502.578,137.203C502.578,138.854 503.816,141.824 506.291,146.115C518.173,167.567 527.084,182.667 533.025,191.413C538.965,199.994 543.421,205.687 546.391,208.493C549.527,211.298 551.59,212.701 552.58,212.701C553.9,212.701 555.633,214.763 557.778,218.889C558.273,219.879 558.52,220.704 558.52,221.364C558.52,222.519 557.2,223.097 554.56,223.097C550.599,222.932 547.052,222.684 543.916,222.354C539.956,222.024 536.573,221.859 533.767,221.859C526.176,222.024 518.503,222.519 510.747,223.345C506.951,223.345 505.054,222.272 505.054,220.127C505.054,217.156 505.961,215.671 507.776,215.671C509.757,215.671 510.994,214.681 511.489,212.701C511.489,209.565 509.922,204.862 506.786,198.591C503.156,191 495.73,178.459 484.508,160.967C482.528,157.666 480.465,156.016 478.32,156.016C477.33,156.016 476.092,156.593 474.607,157.749C472.957,159.399 471.637,160.636 470.647,161.462C469.657,162.287 468.336,163.524 466.686,165.175C464.541,166.825 463.303,168.062 462.973,168.888C462.808,169.383 462.726,171.115 462.726,174.086C463.056,187.782 463.633,197.189 464.458,202.304C465.449,208.245 466.521,212.123 467.676,213.938C468.831,215.754 470.069,216.826 471.389,217.156C472.709,217.321 473.7,218.559 474.36,220.869C474.36,221.034 474.442,221.282 474.607,221.612C474.772,221.942 474.855,222.189 474.855,222.354C474.855,223.51 473.37,224.087 470.399,224.087C469.574,224.087 468.419,224.005 466.934,223.84C463.963,223.675 461.241,223.592 458.765,223.592C456.125,223.757 452.247,223.84 447.131,223.84C442.016,223.84 438.138,223.757 435.497,223.592C432.032,223.592 429.556,223.633 428.071,223.716C426.586,223.798 425.101,223.922 423.616,224.087C420.975,224.087 419.655,223.427 419.655,222.107C419.82,221.612 419.903,221.199 419.903,220.869C420.893,216.909 422.213,214.846 423.863,214.681C425.513,214.516 427.081,212.288 428.566,207.998C430.051,203.707 431.289,195.538 432.279,183.492C433.269,171.28 433.764,151.23 433.764,123.342C433.764,119.546 433.847,115.586 434.012,111.46L434.012,101.311C434.012,82.169 433.599,67.069 432.774,56.013C431.784,42.976 430.382,34.395 428.566,30.27C427.081,26.969 425.596,25.319 424.111,25.319L422.13,25.814C420.81,25.814 419.655,24.164 418.665,20.864L418.665,20.121L418.418,19.378C418.418,18.058 419.738,17.398 422.378,17.398ZM666.197,156.263L666.197,155.026L666.444,155.026L666.444,150.818C666.774,146.527 666.939,140.834 666.939,133.738C666.939,118.226 665.042,109.067 661.246,106.262C658.276,103.787 653.078,102.549 645.652,102.549C639.381,102.549 634.348,102.962 630.552,103.787C627.747,104.612 624.777,105.602 621.641,106.757C620.321,107.252 619.083,107.665 617.928,107.995C616.443,108.49 614.958,109.232 613.473,110.222C611.987,111.213 611.245,113.523 611.245,117.153L611.245,120.124C610.75,134.646 610.502,147.022 610.502,157.254C610.502,168.64 610.667,176.313 610.997,180.274C611.822,192.651 613.06,201.067 614.71,205.522C616.525,209.978 618.341,212.453 620.156,212.948C622.136,213.443 623.869,215.506 625.354,219.136L625.602,219.879L625.602,220.622C625.602,221.777 624.199,222.354 621.394,222.354C620.403,222.354 619.083,222.272 617.433,222.107C614.463,221.942 611.822,221.859 609.512,221.859C606.872,222.024 602.911,222.107 597.631,222.107C592.35,222.107 588.389,222.024 585.749,221.859L578.323,221.859C576.838,221.859 575.353,222.024 573.867,222.354C571.227,222.354 569.907,221.282 569.907,219.136C570.567,215.176 571.64,213.113 573.125,212.948C574.61,212.618 576.095,210.39 577.58,206.265C579.231,201.644 580.633,193.476 581.788,181.759C583.109,168.723 584.016,148.672 584.511,121.609C584.511,117.648 584.594,113.44 584.759,108.985L584.759,98.341C584.759,79.199 584.264,64.924 583.274,55.518C581.954,42.316 580.386,33.818 578.571,30.022C577.25,26.557 575.353,24.824 572.877,24.824C570.897,24.824 569.494,22.844 568.669,18.883C568.669,16.573 570.072,15.418 572.877,15.418C576.673,15.913 580.881,16.16 585.501,16.16L598.373,16.16C600.848,16.16 602.664,16.078 603.819,15.913C604.974,15.583 606.789,15.253 609.265,14.923C612.73,14.923 614.463,16.243 614.463,18.883L613.72,25.567L613.72,29.28C613.72,34.395 613.638,39.593 613.473,44.874C613.308,49.165 613.143,55.353 612.977,63.439C612.812,74.33 612.647,82.251 612.482,87.202C612.482,91.823 613.143,94.38 614.463,94.876C614.793,94.876 615.205,94.958 615.7,95.123C616.195,95.288 616.525,95.371 616.69,95.371C617.681,95.371 618.423,95.206 618.918,94.876C621.064,94.05 624.116,92.813 628.077,91.163C631.047,89.842 634.018,88.852 636.988,88.192C644.909,86.047 652.665,84.479 660.256,83.489C664.052,82.994 667.434,82.746 670.405,82.746C674.035,82.746 676.593,82.911 678.078,83.242C681.544,83.902 684.844,85.304 687.98,87.45C690.785,89.265 692.848,92.895 694.168,98.341C695.158,102.466 695.653,107.912 695.653,114.678L695.653,151.065C695.653,153.541 695.736,155.108 695.901,155.768L695.901,157.501C695.241,166.907 694.911,175.736 694.911,183.987C694.911,185.307 694.993,187.122 695.158,189.433L695.158,193.146C695.653,200.572 696.561,206.017 697.881,209.483C699.036,212.618 700.521,214.681 702.336,215.671C704.152,216.661 705.637,218.229 706.792,220.374C706.792,222.519 705.472,223.592 702.832,223.592C698.871,223.097 695.406,222.849 692.435,222.849L682.039,222.849C678.078,222.849 674.613,223.097 671.643,223.592C668.672,224.087 665.207,224.582 661.246,225.077C659.926,225.077 658.523,224.582 657.038,223.592C655.223,222.602 654.315,221.529 654.315,220.374C655.14,217.569 656.213,216.084 657.533,215.919C659.183,215.589 660.586,214.103 661.741,211.463C663.061,208.493 664.217,203.294 665.207,195.868C665.702,192.403 666.073,187.7 666.321,181.759C666.568,175.818 666.692,167.815 666.692,157.749L666.197,156.263Z" />
</svg>